<svg xmlns="http://www.w3.org/2000/svg" xmlns:xlink="http://www.w3.org/1999/xlink" id="Capa_1" width="512" height="341.3" x="0" style="enable-background:new 0 0 512 341.3" y="0" version="1.1" viewBox="0 0 512 341.3" xml:space="preserve"><style type="text/css">.st0{fill:#ffda44}.st1{fill:#d80027}.st2{fill:#f0f0f0}.st3{fill:#0052b4}</style><rect width="512" height="341.3" class="st0"/><g><rect width="512" height="113.8" class="st1"/><rect width="512" height="113.8" y="227.6" class="st1"/></g><rect width="512" height="341.3" x="-1" y="-.7" class="st2"/><polygon points="287 -.7 223 -.7 223 138 -1 138 -1 202 223 202 223 340.7 287 340.7 287 202 511 202 511 138 287 138" class="st1"/><g><polygon points="392.8 229.4 511 295 511 229.4" class="st3"/><polygon points="310.7 229.4 511 340.7 511 309.2 367.3 229.4" class="st3"/><polygon points="457.6 340.7 310.7 259 310.7 340.7" class="st3"/></g><polygon points="310.7 229.4 511 340.7 511 309.2 367.3 229.4" class="st2"/><polygon points="310.7 229.4 511 340.7 511 309.2 367.3 229.4" class="st1"/><g><polygon points="89.3 229.4 -1 279.5 -1 229.4" class="st3"/><polygon points="199.3 243.5 199.3 340.7 24.5 340.7" class="st3"/></g><polygon points="142.7 229.4 -1 309.2 -1 340.7 -1 340.7 199.3 229.4" class="st1"/><g><polygon points="117.2 110.6 -1 45 -1 110.6" class="st3"/><polygon points="199.3 110.6 -1 -.7 -1 30.8 142.7 110.6" class="st3"/><polygon points="52.4 -.7 199.3 81 199.3 -.7" class="st3"/></g><polygon points="199.3 110.6 -1 -.7 -1 30.8 142.7 110.6" class="st2"/><polygon points="199.3 110.6 -1 -.7 -1 30.8 142.7 110.6" class="st1"/><g><polygon points="420.7 110.6 511 60.4 511 110.6" class="st3"/><polygon points="310.7 96.5 310.7 -.7 485.5 -.7" class="st3"/></g><polygon points="367.3 110.6 511 30.8 511 -.7 511 -.7 310.7 110.6" class="st1"/></svg>